{
  "accessors": [
    {
      "bufferView": 2,
      "componentType": 5126,
      "count": 528,
      "max": [
        0.06670112907886505,
        0.12104232609272003,
        0.060382138937711716
      ],
      "min": [
        -0.059376467019319534,
        -1.1175870895385742e-08,
        -0.05910124257206917
      ],
      "type": "VEC3"
    },
    {
      "bufferView": 2,
      "byteOffset": 6336,
      "componentType": 5126,
      "count": 528,
      "type": "VEC3"
    },
    {
      "bufferView": 3,
      "componentType": 5126,
      "count": 528,
      "type": "VEC4"
    },
    {
      "bufferView": 1,
      "componentType": 5126,
      "count": 528,
      "type": "VEC2"
    },
    {
      "bufferView": 1,
      "byteOffset": 4224,
      "componentType": 5126,
      "count": 528,
      "type": "VEC2"
    },
    {
      "bufferView": 1,
      "byteOffset": 8448,
      "componentType": 5126,
      "count": 528,
      "type": "VEC2"
    },
    {
      "bufferView": 1,
      "byteOffset": 12672,
      "componentType": 5126,
      "count": 528,
      "type": "VEC2"
    },
    {
      "bufferView": 0,
      "componentType": 5125,
      "count": 1692,
      "type": "SCALAR"
    },
    {
      "bufferView": 2,
      "byteOffset": 12672,
      "componentType": 5126,
      "count": 1410,
      "max": [
        0.0578070804476738,
        0.12487662583589554,
        0.05685202404856682
      ],
      "min": [
        -0.05790919438004494,
        -2.60770320892334e-08,
        -0.0769909992814064
      ],
      "type": "VEC3"
    },
    {
      "bufferView": 2,
      "byteOffset": 29592,
      "componentType": 5126,
      "count": 1410,
      "type": "VEC3"
    },
    {
      "bufferView": 3,
      "byteOffset": 8448,
      "componentType": 5126,
      "count": 1410,
      "type": "VEC4"
    },
    {
      "bufferView": 1,
      "byteOffset": 16896,
      "componentType": 5126,
      "count": 1410,
      "type": "VEC2"
    },
    {
      "bufferView": 1,
      "byteOffset": 28176,
      "componentType": 5126,
      "count": 1410,
      "type": "VEC2"
    },
    {
      "bufferView": 1,
      "byteOffset": 39456,
      "componentType": 5126,
      "count": 1410,
      "type": "VEC2"
    },
    {
      "bufferView": 1,
      "byteOffset": 50736,
      "componentType": 5126,
      "count": 1410,
      "type": "VEC2"
    },
    {
      "bufferView": 0,
      "byteOffset": 6768,
      "componentType": 5125,
      "count": 4920,
      "type": "SCALAR"
    },
    {
      "bufferView": 2,
      "byteOffset": 46512,
      "componentType": 5126,
      "count": 1192,
      "max": [
        0.27534130215644836,
        0.06446288526058197,
        0.12241724133491516
      ],
      "min": [
        -0.08116625994443893,
        -0.06048383563756943,
        -0.0
      ],
      "type": "VEC3"
    },
    {
      "bufferView": 2,
      "byteOffset": 60816,
      "componentType": 5126,
      "count": 1192,
      "type": "VEC3"
    },
    {
      "bufferView": 3,
      "byteOffset": 31008,
      "componentType": 5126,
      "count": 1192,
      "type": "VEC4"
    },
    {
      "bufferView": 1,
      "byteOffset": 62016,
      "componentType": 5126,
      "count": 1192,
      "type": "VEC2"
    },
    {
      "bufferView": 1,
      "byteOffset": 71552,
      "componentType": 5126,
      "count": 1192,
      "type": "VEC2"
    },
    {
      "bufferView": 1,
      "byteOffset": 81088,
      "componentType": 5126,
      "count": 1192,
      "type": "VEC2"
    },
    {
      "bufferView": 1,
      "byteOffset": 90624,
      "componentType": 5126,
      "count": 1192,
      "type": "VEC2"
    },
    {
      "bufferView": 0,
      "byteOffset": 26448,
      "componentType": 5125,
      "count": 6042,
      "type": "SCALAR"
    }
  ],
  "asset": {
    "generator": "fab-model-conversion",
    "version": "2.0"
  },
  "bufferViews": [
    {
      "buffer": 0,
      "byteLength": 50616,
      "target": 34963
    },
    {
      "buffer": 0,
      "byteLength": 100160,
      "byteOffset": 50616,
      "byteStride": 8,
      "target": 34962
    },
    {
      "buffer": 0,
      "byteLength": 75120,
      "byteOffset": 150776,
      "byteStride": 12,
      "target": 34962
    },
    {
      "buffer": 0,
      "byteLength": 50080,
      "byteOffset": 225896,
      "byteStride": 16,
      "target": 34962
    }
  ],
  "buffers": [
    {
      "byteLength": 275976,
      "uri": "scene.bin"
    }
  ],
  "images": [
    {
      "uri": "textures/T_bandages_baseColor.png"
    },
    {
      "uri": "textures/T_bandages_metallicRoughness.png"
    },
    {
      "uri": "textures/T_bandages_normal.png"
    }
  ],
  "materials": [
    {
      "doubleSided": true,
      "name": "T_bandages",
      "normalTexture": {
        "index": 2
      },
      "pbrMetallicRoughness": {
        "baseColorTexture": {
          "index": 0
        },
        "metallicRoughnessTexture": {
          "index": 1
        }
      }
    }
  ],
  "meshes": [
    {
      "name": "Object_0",
      "primitives": [
        {
          "attributes": {
            "NORMAL": 1,
            "POSITION": 0,
            "TANGENT": 2,
            "TEXCOORD_0": 3,
            "TEXCOORD_1": 4,
            "TEXCOORD_2": 5,
            "TEXCOORD_3": 6
          },
          "indices": 7,
          "material": 0,
          "mode": 4
        }
      ]
    },
    {
      "name": "Object_1",
      "primitives": [
        {
          "attributes": {
            "NORMAL": 9,
            "POSITION": 8,
            "TANGENT": 10,
            "TEXCOORD_0": 11,
            "TEXCOORD_1": 12,
            "TEXCOORD_2": 13,
            "TEXCOORD_3": 14
          },
          "indices": 15,
          "material": 0,
          "mode": 4
        }
      ]
    },
    {
      "name": "Object_2",
      "primitives": [
        {
          "attributes": {
            "NORMAL": 17,
            "POSITION": 16,
            "TANGENT": 18,
            "TEXCOORD_0": 19,
            "TEXCOORD_1": 20,
            "TEXCOORD_2": 21,
            "TEXCOORD_3": 22
          },
          "indices": 23,
          "material": 0,
          "mode": 4
        }
      ]
    }
  ],
  "nodes": [
    {
      "children": [
        1
      ],
      "matrix": [
        1.0,
        0.0,
        0.0,
        0.0,
        0.0,
        2.220446049250313e-16,
        -1.0,
        0.0,
        0.0,
        1.0,
        2.220446049250313e-16,
        0.0,
        0.0,
        0.0,
        0.0,
        1.0
      ],
      "name": "Sketchfab_model"
    },
    {
      "children": [
        2
      ],
      "name": "root"
    },
    {
      "children": [
        3,
        5,
        7
      ],
      "matrix": [
        1.0,
        0.0,
        0.0,
        0.0,
        0.0,
        2.220446049250313e-16,
        1.0,
        0.0,
        0.0,
        -1.0,
        2.220446049250313e-16,
        0.0,
        0.0,
        0.0,
        0.0,
        1.0
      ],
      "name": "GLTF_SceneRootNode"
    },
    {
      "children": [
        4
      ],
      "name": "SM_bandages_2"
    },
    {
      "mesh": 0,
      "name": "Object_4"
    },
    {
      "children": [
        6
      ],
      "matrix": [
        1.0,
        0.0,
        0.0,
        0.0,
        0.0,
        1.0,
        0.0,
        0.0,
        0.0,
        0.0,
        1.0,
        0.0,
        0.0,
        0.0,
        -0.17141951620578766,
        1.0
      ],
      "name": "SM_bandages.001_3"
    },
    {
      "mesh": 1,
      "name": "Object_6"
    },
    {
      "children": [
        8
      ],
      "matrix": [
        1.0,
        0.0,
        0.0,
        0.0,
        -0.0,
        8.429369480200677e-08,
        -0.9999999999999966,
        0.0,
        0.0,
        0.9999999999999966,
        8.429369480200677e-08,
        0.0,
        0.0,
        0.0,
        0.18863818049430847,
        1.0
      ],
      "name": "SM_bandages.002_4"
    },
    {
      "mesh": 2,
      "name": "Object_8"
    }
  ],
  "samplers": [
    {
      "magFilter": 9729,
      "minFilter": 9987,
      "wrapS": 10497,
      "wrapT": 10497
    }
  ],
  "scene": 0,
  "scenes": [
    {
      "name": "Sketchfab_Scene",
      "nodes": [
        0
      ]
    }
  ],
  "textures": [
    {
      "sampler": 0,
      "source": 0
    },
    {
      "sampler": 0,
      "source": 1
    },
    {
      "sampler": 0,
      "source": 2
    }
  ]
}
